# 3ds Max Wavefront OBJ Exporter v0.97b - (c)2007 guruware
# File Created: 19.04.2013 18:46:07

mtllib flashbang.mtl

#
# object Box001
#

v  -7.7938 94.7273 0.0000
v  -7.7938 98.1177 0.0000
v  -2.2261 98.1177 0.0000
v  -2.2261 94.7273 0.0000
v  3.3416 98.1177 0.0000
v  3.3416 94.7273 0.0000
v  8.9093 98.1177 0.0000
v  8.9093 94.7273 0.0000
v  -7.7938 101.5080 0.0000
v  -2.2261 101.5080 0.0000
v  3.3416 101.5080 0.0000
v  8.9093 101.5080 0.0000
v  -7.7938 104.8983 0.0000
v  -2.2261 104.8983 0.0000
v  3.3416 104.8983 0.0000
v  8.9093 104.8983 0.0000
v  -7.7938 108.2886 0.0000
v  -2.2261 108.2886 0.0000
v  3.3416 108.2886 0.0000
v  8.9093 108.2886 0.0000
v  -7.7938 94.7273 25.9658
v  -2.2261 94.7273 25.9658
v  -2.2261 98.1177 25.9658
v  -7.7938 98.1177 25.9658
v  3.3416 94.7273 25.9658
v  3.3416 98.1177 25.9658
v  8.9093 94.7273 25.9658
v  8.9093 98.1177 25.9658
v  -2.2261 101.5080 25.9658
v  -7.7938 101.5080 25.9658
v  3.3416 101.5080 25.9658
v  8.9093 101.5080 25.9658
v  -2.2261 104.8983 25.9658
v  -7.7938 104.8983 25.9658
v  -2.2261 101.5080 35.4938
v  3.3416 101.5080 35.4938
v  3.3416 104.8983 35.4938
v  -2.2261 104.8983 35.4938
v  8.9093 104.8983 25.9658
v  3.3416 104.8983 25.9658
v  -2.2261 108.2886 25.9658
v  -7.7938 108.2886 25.9658
v  3.3416 108.2886 25.9658
v  8.9093 108.2886 25.9658
v  22.0569 0.0000 0.8547
v  20.7439 0.0000 -6.5918
v  20.7439 13.5124 -6.5918
v  22.0569 13.5124 0.8547
v  16.9633 0.0000 -13.1401
v  16.9633 13.5124 -13.1401
v  11.1709 0.0000 -18.0004
v  11.1709 13.5124 -18.0004
v  4.0656 0.0000 -20.5866
v  4.0656 13.5124 -20.5866
v  -3.4958 0.0000 -20.5866
v  -3.4958 13.5124 -20.5866
v  -10.6011 0.0000 -18.0004
v  -10.6011 13.5124 -18.0004
v  -16.3935 0.0000 -13.1401
v  -16.3935 13.5124 -13.1401
v  -20.1741 0.0000 -6.5918
v  -20.1741 13.5124 -6.5918
v  -21.4871 0.0000 0.8547
v  -21.4871 13.5124 0.8547
v  -20.1741 0.0000 8.3012
v  -20.1741 13.5124 8.3012
v  -16.3935 0.0000 14.8495
v  -16.3935 13.5124 14.8495
v  -10.6011 0.0000 19.7098
v  -10.6011 13.5124 19.7098
v  -3.4958 0.0000 22.2960
v  -3.4958 13.5124 22.2960
v  4.0656 0.0000 22.2960
v  4.0656 13.5124 22.2960
v  11.1709 0.0000 19.7099
v  11.1709 13.5124 19.7099
v  16.9632 0.0000 14.8495
v  16.9632 13.5124 14.8495
v  20.7439 0.0000 8.3012
v  20.7439 13.5124 8.3012
v  15.3507 27.0248 -4.6288
v  16.3176 27.0248 0.8547
v  12.5667 27.0248 -9.4509
v  8.3013 27.0248 -13.0301
v  3.0690 27.0248 -14.9345
v  -2.4992 27.0248 -14.9345
v  -7.7315 27.0248 -13.0301
v  -11.9969 27.0248 -9.4509
v  -14.7809 27.0248 -4.6288
v  -15.7478 27.0248 0.8547
v  -14.7809 27.0248 6.3382
v  -11.9969 27.0248 11.1603
v  -7.7315 27.0248 14.7395
v  -2.4992 27.0248 16.6439
v  3.0689 27.0248 16.6439
v  8.3013 27.0248 14.7395
v  12.5667 27.0248 11.1604
v  15.3507 27.0248 6.3382
v  15.3507 40.5372 -4.6288
v  16.3176 40.5372 0.8547
v  12.5667 40.5372 -9.4509
v  8.3013 40.5372 -13.0301
v  3.0690 40.5372 -14.9345
v  -2.4992 40.5372 -14.9345
v  -7.7315 40.5372 -13.0301
v  -11.9969 40.5372 -9.4509
v  -14.7809 40.5372 -4.6288
v  -15.7478 40.5372 0.8547
v  -14.7809 40.5372 6.3382
v  -11.9969 40.5372 11.1603
v  -7.7315 40.5372 14.7395
v  -2.4992 40.5372 16.6439
v  3.0689 40.5372 16.6439
v  8.3013 40.5372 14.7395
v  12.5667 40.5372 11.1604
v  15.3507 40.5372 6.3382
v  15.3507 54.0497 -4.6288
v  16.3176 54.0497 0.8547
v  12.5667 54.0497 -9.4509
v  8.3013 54.0497 -13.0301
v  3.0690 54.0497 -14.9345
v  -2.4992 54.0497 -14.9345
v  -7.7315 54.0497 -13.0301
v  -11.9969 54.0497 -9.4509
v  -14.7809 54.0497 -4.6288
v  -15.7478 54.0497 0.8547
v  -14.7809 54.0497 6.3382
v  -11.9969 54.0497 11.1603
v  -7.7315 54.0497 14.7395
v  -2.4992 54.0497 16.6439
v  3.0689 54.0497 16.6439
v  8.3013 54.0497 14.7395
v  12.5667 54.0497 11.1604
v  15.3507 54.0497 6.3382
v  15.3507 67.5621 -4.6288
v  16.3176 67.5621 0.8547
v  12.5667 67.5621 -9.4509
v  8.3013 67.5621 -13.0301
v  3.0690 67.5621 -14.9345
v  -2.4992 67.5621 -14.9345
v  -7.7315 67.5621 -13.0301
v  -11.9969 67.5621 -9.4509
v  -14.7809 67.5621 -4.6288
v  -15.7478 67.5621 0.8547
v  -14.7809 67.5621 6.3382
v  -11.9969 67.5621 11.1603
v  -7.7315 67.5621 14.7395
v  -2.4992 67.5621 16.6439
v  3.0689 67.5621 16.6439
v  8.3013 67.5621 14.7395
v  12.5667 67.5621 11.1604
v  15.3507 67.5621 6.3382
v  20.7439 81.0745 -6.5918
v  22.0569 81.0745 0.8547
v  16.9633 81.0745 -13.1401
v  11.1709 81.0745 -18.0004
v  4.0656 81.0745 -20.5866
v  -3.4958 81.0745 -20.5866
v  -10.6011 81.0745 -18.0004
v  -16.3935 81.0745 -13.1401
v  -20.1741 81.0745 -6.5918
v  -21.4871 81.0745 0.8547
v  -20.1741 81.0745 8.3012
v  -16.3935 81.0745 14.8495
v  -10.6011 81.0745 19.7098
v  -3.4958 81.0745 22.2960
v  4.0656 81.0745 22.2960
v  11.1709 81.0745 19.7099
v  16.9632 81.0745 14.8495
v  20.7439 81.0745 8.3012
v  20.7439 94.5869 -6.5918
v  22.0569 94.5869 0.8547
v  16.9633 94.5869 -13.1401
v  11.1709 94.5869 -18.0004
v  4.0656 94.5869 -20.5866
v  -3.4958 94.5869 -20.5866
v  -10.6011 94.5869 -18.0004
v  -16.3935 94.5869 -13.1401
v  -20.1741 94.5869 -6.5918
v  -21.4871 94.5869 0.8547
v  -20.1741 94.5869 8.3012
v  -16.3935 94.5869 14.8495
v  -10.6011 94.5869 19.7098
v  -3.4958 94.5869 22.2960
v  4.0656 94.5869 22.2960
v  11.1709 94.5869 19.7099
v  16.9632 94.5869 14.8495
v  20.7439 94.5869 8.3012
v  -0.4541 36.7515 28.9982
v  1.5696 36.7515 28.9982
v  1.5696 36.7515 32.4614
v  -0.4541 36.7515 32.4614
# 192 vertices

vn 0.0000 0.0000 -1.0000
vn 0.0000 -0.0000 1.0000
vn 0.0000 -1.0000 -0.0000
vn 1.0000 0.0000 -0.0000
vn 0.0000 1.0000 0.0000
vn -1.0000 0.0000 -0.0000
vn 1.0000 0.0000 0.0000
vn 0.9397 -0.0000 -0.3420
vn 0.9216 0.1953 -0.3354
vn 0.9807 0.1953 0.0000
vn 0.7660 0.0000 -0.6428
vn 0.7513 0.1953 -0.6304
vn 0.5000 0.0000 -0.8660
vn 0.4904 0.1953 -0.8493
vn 0.1736 0.0000 -0.9848
vn 0.1703 0.1953 -0.9658
vn -0.1736 0.0000 -0.9848
vn -0.1703 0.1953 -0.9658
vn -0.5000 0.0000 -0.8660
vn -0.4904 0.1953 -0.8493
vn -0.7660 -0.0000 -0.6428
vn -0.7513 0.1953 -0.6304
vn -0.9397 0.0000 -0.3420
vn -0.9216 0.1953 -0.3354
vn -0.9807 0.1953 -0.0000
vn -0.9397 0.0000 0.3420
vn -0.9216 0.1953 0.3354
vn -0.7660 -0.0000 0.6428
vn -0.7513 0.1953 0.6304
vn -0.5000 -0.0000 0.8660
vn -0.4904 0.1953 0.8493
vn -0.1736 -0.0000 0.9848
vn -0.1703 0.1953 0.9658
vn 0.1736 -0.0000 0.9848
vn 0.1703 0.1953 0.9658
vn 0.5000 -0.0000 0.8660
vn 0.4904 0.1953 0.8493
vn 0.7660 0.0000 0.6428
vn 0.7513 0.1953 0.6304
vn 0.9397 -0.0000 0.3420
vn 0.9216 0.1953 0.3354
vn 0.9199 0.2039 -0.3348
vn 0.9790 0.2039 0.0000
vn 0.7499 0.2039 -0.6293
vn 0.4895 0.2039 -0.8478
vn 0.1700 0.2039 -0.9641
vn -0.1700 0.2039 -0.9641
vn -0.4895 0.2039 -0.8478
vn -0.7499 0.2039 -0.6293
vn -0.9199 0.2039 -0.3348
vn -0.9790 0.2039 -0.0000
vn -0.9199 0.2039 0.3348
vn -0.7499 0.2039 0.6293
vn -0.4895 0.2039 0.8478
vn -0.1700 0.2039 0.9641
vn 0.1700 0.2039 0.9641
vn 0.4895 0.2039 0.8478
vn 0.7499 0.2039 0.6293
vn 0.9199 0.2039 0.3348
vn 0.7660 -0.0000 -0.6428
vn -0.7660 0.0000 -0.6428
vn -0.9397 -0.0000 -0.3420
vn -1.0000 -0.0000 -0.0000
vn -0.7660 0.0000 0.6428
vn 0.1736 0.0000 0.9848
vn 0.7660 -0.0000 0.6428
vn 0.9397 0.0000 0.3420
vn 0.9397 0.0000 -0.3420
vn -0.9397 -0.0000 0.3420
vn 0.5000 0.0000 0.8660
vn 0.9199 -0.2039 -0.3348
vn 0.9790 -0.2039 0.0000
vn 0.7499 -0.2039 -0.6293
vn 0.4895 -0.2039 -0.8478
vn 0.1700 -0.2039 -0.9641
vn -0.1700 -0.2039 -0.9641
vn -0.4895 -0.2039 -0.8478
vn -0.7499 -0.2039 -0.6293
vn -0.9199 -0.2039 -0.3348
vn -0.9790 -0.2039 -0.0000
vn -0.9199 -0.2039 0.3348
vn -0.7499 -0.2039 0.6293
vn -0.4895 -0.2039 0.8478
vn -0.1700 -0.2039 0.9641
vn 0.1700 -0.2039 0.9641
vn 0.4895 -0.2039 0.8478
vn 0.7499 -0.2039 0.6293
vn 0.9199 -0.2039 0.3348
vn 0.9216 -0.1953 -0.3354
vn 0.9807 -0.1953 0.0000
vn 0.7513 -0.1953 -0.6304
vn 0.4904 -0.1953 -0.8493
vn 0.1703 -0.1953 -0.9658
vn -0.1703 -0.1953 -0.9658
vn -0.4904 -0.1953 -0.8493
vn -0.7513 -0.1953 -0.6304
vn -0.9216 -0.1953 -0.3354
vn -0.9807 -0.1953 -0.0000
vn -0.9216 -0.1953 0.3354
vn -0.7513 -0.1953 0.6304
vn -0.4904 -0.1953 0.8493
vn -0.1703 -0.1953 0.9658
vn 0.1703 -0.1953 0.9658
vn 0.4904 -0.1953 0.8493
vn 0.7513 -0.1953 0.6304
vn 0.9216 -0.1953 0.3354
vn 0.0000 -0.0468 -0.9989
vn 0.9996 -0.0274 -0.0000
vn 0.0000 -0.0468 0.9989
vn -0.9996 -0.0274 -0.0000
# 110 vertex normals

vt 0.9329 0.2742 0.0000
vt 0.9483 0.2742 0.0000
vt 0.9483 0.2996 0.0000
vt 0.9329 0.2996 0.0000
vt 0.9483 0.3249 0.0000
vt 0.9329 0.3249 0.0000
vt 0.9483 0.3503 0.0000
vt 0.9329 0.3503 0.0000
vt 0.9637 0.2742 0.0000
vt 0.9637 0.2996 0.0000
vt 0.9637 0.3249 0.0000
vt 0.9637 0.3503 0.0000
vt 0.9792 0.2742 0.0000
vt 0.9792 0.2996 0.0000
vt 0.9792 0.3249 0.0000
vt 0.9792 0.3503 0.0000
vt 0.9946 0.2742 0.0000
vt 0.9946 0.2996 0.0000
vt 0.9946 0.3249 0.0000
vt 0.9946 0.3503 0.0000
vt 0.0618 0.6830 0.0000
vt 0.0618 0.7084 0.0000
vt 0.0463 0.7084 0.0000
vt 0.0463 0.6830 0.0000
vt 0.0618 0.7337 0.0000
vt 0.0463 0.7337 0.0000
vt 0.0618 0.7591 0.0000
vt 0.0463 0.7591 0.0000
vt 0.0309 0.7084 0.0000
vt 0.0309 0.6830 0.0000
vt 0.0309 0.7337 0.0000
vt 0.0309 0.7591 0.0000
vt 0.0154 0.7084 0.0000
vt 0.0154 0.6830 0.0000
vt 0.0154 0.7337 0.0000
vt 0.0154 0.7591 0.0000
vt 0.0000 0.7084 0.0000
vt 0.0000 0.6830 0.0000
vt 0.0000 0.7337 0.0000
vt 0.0000 0.7591 0.0000
vt 0.0707 0.3590 0.0000
vt 0.0876 0.3401 0.0000
vt 0.1759 0.4188 0.0000
vt 0.1590 0.4378 0.0000
vt 0.1045 0.3212 0.0000
vt 0.1928 0.3999 0.0000
vt 0.1214 0.3023 0.0000
vt 0.2096 0.3810 0.0000
vt 0.9382 0.0599 0.0000
vt 0.9537 0.0599 0.0000
vt 0.9537 0.1781 0.0000
vt 0.9382 0.1781 0.0000
vt 0.9691 0.0599 0.0000
vt 0.9691 0.1781 0.0000
vt 0.9846 0.0599 0.0000
vt 0.9846 0.1781 0.0000
vt 1.0000 0.0599 0.0000
vt 1.0000 0.1781 0.0000
vt 0.3999 0.3026 0.0000
vt 0.3861 0.3239 0.0000
vt 0.2869 0.2596 0.0000
vt 0.3007 0.2383 0.0000
vt 0.3723 0.3452 0.0000
vt 0.2731 0.2808 0.0000
vt 0.3585 0.3665 0.0000
vt 0.2593 0.3021 0.0000
vt 0.0000 0.0599 0.0000
vt 0.0154 0.0599 0.0000
vt 0.0154 0.1781 0.0000
vt 0.0000 0.1781 0.0000
vt 0.0309 0.0599 0.0000
vt 0.0309 0.1781 0.0000
vt 0.0463 0.0599 0.0000
vt 0.0463 0.1781 0.0000
vt 0.0618 0.0599 0.0000
vt 0.0618 0.1781 0.0000
vt 0.5068 0.0637 0.0000
vt 0.5068 0.0298 0.0000
vt 0.5683 0.0298 0.0000
vt 0.5683 0.0637 0.0000
vt 0.5068 0.0000 0.0000
vt 0.5683 0.0000 0.0000
vt 0.5014 0.3870 0.0000
vt 0.5014 0.3606 0.0000
vt 0.5629 0.3606 0.0000
vt 0.5629 0.3870 0.0000
vt 0.5014 0.3282 0.0000
vt 0.5629 0.3282 0.0000
vt 0.5014 0.2938 0.0000
vt 0.5629 0.2938 0.0000
vt 0.5014 0.2614 0.0000
vt 0.5629 0.2614 0.0000
vt 0.5014 0.2350 0.0000
vt 0.5629 0.2350 0.0000
vt 0.4932 0.0000 0.0000
vt 0.4932 0.0298 0.0000
vt 0.4317 0.0298 0.0000
vt 0.4317 0.0000 0.0000
vt 0.4932 0.0637 0.0000
vt 0.4317 0.0637 0.0000
vt 0.4932 0.0977 0.0000
vt 0.4317 0.0977 0.0000
vt 0.4932 0.1275 0.0000
vt 0.4317 0.1275 0.0000
vt 0.4932 0.6438 0.0000
vt 0.4932 0.6702 0.0000
vt 0.4317 0.6702 0.0000
vt 0.4317 0.6438 0.0000
vt 0.4932 0.7026 0.0000
vt 0.4317 0.7026 0.0000
vt 0.4932 0.7370 0.0000
vt 0.4317 0.7370 0.0000
vt 0.4932 0.7694 0.0000
vt 0.4317 0.7694 0.0000
vt 0.4932 0.7958 0.0000
vt 0.4317 0.7958 0.0000
vt 0.5068 0.1275 0.0000
vt 0.5068 0.0977 0.0000
vt 0.5683 0.0977 0.0000
vt 0.5683 0.1275 0.0000
vt 0.6299 0.0388 0.0000
vt 0.6299 0.0637 0.0000
vt 0.6299 0.0168 0.0000
vt 0.6245 0.3475 0.0000
vt 0.6245 0.3670 0.0000
vt 0.6245 0.3237 0.0000
vt 0.6245 0.2983 0.0000
vt 0.6245 0.2745 0.0000
vt 0.6245 0.2551 0.0000
vt 0.3701 0.0388 0.0000
vt 0.3701 0.0168 0.0000
vt 0.3701 0.0637 0.0000
vt 0.3701 0.0887 0.0000
vt 0.3701 0.1107 0.0000
vt 0.3701 0.6833 0.0000
vt 0.3701 0.6639 0.0000
vt 0.3701 0.7071 0.0000
vt 0.3701 0.7325 0.0000
vt 0.3701 0.7563 0.0000
vt 0.3701 0.7757 0.0000
vt 0.6299 0.0887 0.0000
vt 0.6299 0.1107 0.0000
vt 0.6914 0.0388 0.0000
vt 0.6914 0.0637 0.0000
vt 0.6914 0.0168 0.0000
vt 0.6860 0.3475 0.0000
vt 0.6860 0.3670 0.0000
vt 0.6860 0.3237 0.0000
vt 0.6860 0.2983 0.0000
vt 0.6860 0.2745 0.0000
vt 0.6860 0.2551 0.0000
vt 0.3086 0.0388 0.0000
vt 0.3086 0.0168 0.0000
vt 0.3086 0.0637 0.0000
vt 0.3086 0.0887 0.0000
vt 0.3086 0.1107 0.0000
vt 0.3086 0.6833 0.0000
vt 0.3086 0.6639 0.0000
vt 0.3086 0.7071 0.0000
vt 0.3086 0.7325 0.0000
vt 0.3086 0.7563 0.0000
vt 0.3086 0.7757 0.0000
vt 0.6914 0.0887 0.0000
vt 0.6914 0.1107 0.0000
vt 0.7530 0.0388 0.0000
vt 0.7530 0.0637 0.0000
vt 0.7530 0.0168 0.0000
vt 0.7476 0.3475 0.0000
vt 0.7476 0.3670 0.0000
vt 0.7476 0.3237 0.0000
vt 0.7476 0.2983 0.0000
vt 0.7476 0.2745 0.0000
vt 0.7476 0.2551 0.0000
vt 0.2470 0.0388 0.0000
vt 0.2470 0.0168 0.0000
vt 0.2470 0.0637 0.0000
vt 0.2470 0.0887 0.0000
vt 0.2470 0.1107 0.0000
vt 0.2470 0.6833 0.0000
vt 0.2470 0.6639 0.0000
vt 0.2470 0.7071 0.0000
vt 0.2470 0.7325 0.0000
vt 0.2470 0.7563 0.0000
vt 0.2470 0.7757 0.0000
vt 0.7530 0.0887 0.0000
vt 0.7530 0.1107 0.0000
vt 0.8145 0.0388 0.0000
vt 0.8145 0.0637 0.0000
vt 0.8145 0.0168 0.0000
vt 0.8091 0.3475 0.0000
vt 0.8091 0.3670 0.0000
vt 0.8091 0.3237 0.0000
vt 0.8091 0.2983 0.0000
vt 0.8091 0.2745 0.0000
vt 0.8091 0.2551 0.0000
vt 0.1855 0.0388 0.0000
vt 0.1855 0.0168 0.0000
vt 0.1855 0.0637 0.0000
vt 0.1855 0.0887 0.0000
vt 0.1855 0.1107 0.0000
vt 0.1855 0.6833 0.0000
vt 0.1855 0.6639 0.0000
vt 0.1855 0.7071 0.0000
vt 0.1855 0.7325 0.0000
vt 0.1855 0.7563 0.0000
vt 0.1855 0.7757 0.0000
vt 0.8145 0.0887 0.0000
vt 0.8145 0.1107 0.0000
vt 0.8760 0.0298 0.0000
vt 0.8760 0.0637 0.0000
vt 0.8760 0.0000 0.0000
vt 0.8707 0.3606 0.0000
vt 0.8707 0.3870 0.0000
vt 0.8707 0.3282 0.0000
vt 0.8707 0.2938 0.0000
vt 0.8707 0.2614 0.0000
vt 0.8707 0.2350 0.0000
vt 0.1240 0.0298 0.0000
vt 0.1240 0.0000 0.0000
vt 0.1240 0.0637 0.0000
vt 0.1240 0.0977 0.0000
vt 0.1240 0.1275 0.0000
vt 0.1240 0.6702 0.0000
vt 0.1240 0.6438 0.0000
vt 0.1240 0.7026 0.0000
vt 0.1240 0.7370 0.0000
vt 0.1240 0.7694 0.0000
vt 0.1240 0.7958 0.0000
vt 0.8760 0.0977 0.0000
vt 0.8760 0.1275 0.0000
vt 0.9376 0.0298 0.0000
vt 0.9376 0.0637 0.0000
vt 0.9376 0.0000 0.0000
vt 0.9322 0.3606 0.0000
vt 0.9322 0.3870 0.0000
vt 0.9322 0.3282 0.0000
vt 0.9322 0.2938 0.0000
vt 0.9322 0.2614 0.0000
vt 0.9322 0.2350 0.0000
vt 0.0624 0.0298 0.0000
vt 0.0624 0.0000 0.0000
vt 0.0624 0.0637 0.0000
vt 0.0624 0.0977 0.0000
vt 0.0624 0.1275 0.0000
vt 0.0624 0.6702 0.0000
vt 0.0624 0.6438 0.0000
vt 0.0624 0.7026 0.0000
vt 0.0624 0.7370 0.0000
vt 0.0624 0.7694 0.0000
vt 0.0624 0.7958 0.0000
vt 0.9376 0.0977 0.0000
vt 0.9376 0.1275 0.0000
vt 0.1963 0.3199 0.0000
vt 0.1952 0.3543 0.0000
vt 0.1825 0.3863 0.0000
vt 0.1642 0.2602 0.0000
vt 0.1596 0.4120 0.0000
vt 0.1292 0.4283 0.0000
vt 0.0614 0.4263 0.0000
vt 0.0951 0.4333 0.0000
vt 0.0321 0.4082 0.0000
vt 0.0108 0.3811 0.0000
vt 0.0010 0.3140 0.0000
vt 0.0000 0.3484 0.0000
vt 0.0138 0.2820 0.0000
vt 0.0367 0.2563 0.0000
vt 0.1011 0.2350 0.0000
vt 0.0671 0.2400 0.0000
vt 0.1349 0.2421 0.0000
vt 0.1855 0.2872 0.0000
vt 0.4545 0.2737 0.0000
vt 0.4701 0.3044 0.0000
vt 0.4743 0.3386 0.0000
vt 0.3975 0.2368 0.0000
vt 0.4666 0.3722 0.0000
vt 0.4479 0.4011 0.0000
vt 0.3875 0.4319 0.0000
vt 0.4204 0.4218 0.0000
vt 0.3531 0.4301 0.0000
vt 0.3213 0.4167 0.0000
vt 0.2805 0.3625 0.0000
vt 0.2961 0.3932 0.0000
vt 0.2763 0.3283 0.0000
vt 0.2840 0.2948 0.0000
vt 0.3302 0.2451 0.0000
vt 0.3027 0.2659 0.0000
vt 0.3631 0.2350 0.0000
vt 0.4293 0.2503 0.0000
vt 0.1916 0.4220 0.0000
vt 0.1977 0.4151 0.0000
vt 0.2095 0.4256 0.0000
vt 0.2033 0.4325 0.0000
vt 0.9846 0.2215 0.0000
vt 0.9691 0.2215 0.0000
vt 0.2367 0.2572 0.0000
vt 0.2505 0.2359 0.0000
vt 0.0309 0.2215 0.0000
vt 0.0154 0.2215 0.0000
vt 0.6688 0.3169 0.0000
vt 0.6688 0.3076 0.0000
vt 0.6742 0.2077 0.0000
vt 0.6742 0.1919 0.0000
vt 0.3258 0.7164 0.0000
vt 0.3258 0.7256 0.0000
vt 0.3258 0.1919 0.0000
vt 0.3258 0.2077 0.0000
# 306 texture coords

g Box001
usemtl 02___Default
s 2
f 1/1/1 2/2/1 3/3/1 4/4/1 
f 4/4/1 3/3/1 5/5/1 6/6/1 
f 6/6/1 5/5/1 7/7/1 8/8/1 
f 2/2/1 9/9/1 10/10/1 3/3/1 
f 3/3/1 10/10/1 11/11/1 5/5/1 
f 5/5/1 11/11/1 12/12/1 7/7/1 
f 9/9/1 13/13/1 14/14/1 10/10/1 
f 10/10/1 14/14/1 15/15/1 11/11/1 
f 11/11/1 15/15/1 16/16/1 12/12/1 
f 13/13/1 17/17/1 18/18/1 14/14/1 
f 14/14/1 18/18/1 19/19/1 15/15/1 
f 15/15/1 19/19/1 20/20/1 16/16/1 
s 4
f 21/21/2 22/22/2 23/23/2 24/24/2 
f 22/22/2 25/25/2 26/26/2 23/23/2 
f 25/25/2 27/27/2 28/28/2 26/26/2 
f 24/24/2 23/23/2 29/29/2 30/30/2 
f 23/23/2 26/26/2 31/31/2 29/29/2 
f 26/26/2 28/28/2 32/32/2 31/31/2 
f 30/30/2 29/29/2 33/33/2 34/34/2 
f 35/29/2 36/31/2 37/35/2 38/33/2 
f 31/31/2 32/32/2 39/36/2 40/35/2 
f 34/34/2 33/33/2 41/37/2 42/38/2 
f 33/33/2 40/35/2 43/39/2 41/37/2 
f 40/35/2 39/36/2 44/40/2 43/39/2 
s 8
f 1/41/3 4/42/3 22/43/3 21/44/3 
f 4/42/3 6/45/3 25/46/3 22/43/3 
f 6/45/3 8/47/3 27/48/3 25/46/3 
s 16
f 8/49/4 7/50/4 28/51/4 27/52/4 
f 7/50/4 12/53/4 32/54/4 28/51/4 
f 12/53/4 16/55/4 39/56/4 32/54/4 
f 16/55/4 20/57/4 44/58/4 39/56/4 
s 32
f 20/59/5 19/60/5 43/61/5 44/62/5 
f 19/60/5 18/63/5 41/64/5 43/61/5 
f 18/63/5 17/65/5 42/66/5 41/64/5 
s 64
f 17/67/6 13/68/6 34/69/6 42/70/6 
f 13/68/6 9/71/6 30/72/6 34/69/6 
f 9/71/6 2/73/6 24/74/6 30/72/6 
f 2/73/6 1/75/6 21/76/6 24/74/6 
s 8
f 45/77/7 46/78/8 47/79/9 48/80/10 
f 46/78/8 49/81/11 50/82/12 47/79/9 
f 49/83/11 51/84/13 52/85/14 50/86/12 
f 51/84/13 53/87/15 54/88/16 52/85/14 
f 53/87/15 55/89/17 56/90/18 54/88/16 
f 55/89/17 57/91/19 58/92/20 56/90/18 
f 57/91/19 59/93/21 60/94/22 58/92/20 
f 59/95/21 61/96/23 62/97/24 60/98/22 
f 61/96/23 63/99/6 64/100/25 62/97/24 
f 63/99/6 65/101/26 66/102/27 64/100/25 
f 65/101/26 67/103/28 68/104/29 66/102/27 
f 67/105/28 69/106/30 70/107/31 68/108/29 
f 69/106/30 71/109/32 72/110/33 70/107/31 
f 71/109/32 73/111/34 74/112/35 72/110/33 
f 73/111/34 75/113/36 76/114/37 74/112/35 
f 75/113/36 77/115/38 78/116/39 76/114/37 
f 77/117/38 79/118/40 80/119/41 78/120/39 
f 79/118/40 45/77/7 48/80/10 80/119/41 
f 48/80/10 47/79/9 81/121/42 82/122/43 
f 47/79/9 50/82/12 83/123/44 81/121/42 
f 50/86/12 52/85/14 84/124/45 83/125/44 
f 52/85/14 54/88/16 85/126/46 84/124/45 
f 54/88/16 56/90/18 86/127/47 85/126/46 
f 56/90/18 58/92/20 87/128/48 86/127/47 
f 58/92/20 60/94/22 88/129/49 87/128/48 
f 60/98/22 62/97/24 89/130/50 88/131/49 
f 62/97/24 64/100/25 90/132/51 89/130/50 
f 64/100/25 66/102/27 91/133/52 90/132/51 
f 66/102/27 68/104/29 92/134/53 91/133/52 
f 68/108/29 70/107/31 93/135/54 92/136/53 
f 70/107/31 72/110/33 94/137/55 93/135/54 
f 72/110/33 74/112/35 95/138/56 94/137/55 
f 74/112/35 76/114/37 96/139/57 95/138/56 
f 76/114/37 78/116/39 97/140/58 96/139/57 
f 78/120/39 80/119/41 98/141/59 97/142/58 
f 80/119/41 48/80/10 82/122/43 98/141/59 
f 82/122/43 81/121/42 99/143/8 100/144/7 
f 81/121/42 83/123/44 101/145/60 99/143/8 
f 83/125/44 84/124/45 102/146/13 101/147/60 
f 84/124/45 85/126/46 103/148/15 102/146/13 
f 85/126/46 86/127/47 104/149/17 103/148/15 
f 86/127/47 87/128/48 105/150/19 104/149/17 
f 87/128/48 88/129/49 106/151/61 105/150/19 
f 88/131/49 89/130/50 107/152/62 106/153/61 
f 89/130/50 90/132/51 108/154/63 107/152/62 
f 90/132/51 91/133/52 109/155/26 108/154/63 
f 91/133/52 92/134/53 110/156/64 109/155/26 
f 92/136/53 93/135/54 111/157/30 110/158/64 
f 93/135/54 94/137/55 112/159/32 111/157/30 
f 94/137/55 95/138/56 113/160/65 112/159/32 
f 95/138/56 96/139/57 114/161/36 113/160/65 
f 96/139/57 97/140/58 115/162/66 114/161/36 
f 97/142/58 98/141/59 116/163/67 115/164/66 
f 98/141/59 82/122/43 100/144/7 116/163/67 
f 100/144/7 99/143/8 117/165/68 118/166/7 
f 99/143/8 101/145/60 119/167/11 117/165/68 
f 101/147/60 102/146/13 120/168/13 119/169/11 
f 102/146/13 103/148/15 121/170/15 120/168/13 
f 103/148/15 104/149/17 122/171/17 121/170/15 
f 104/149/17 105/150/19 123/172/19 122/171/17 
f 105/150/19 106/151/61 124/173/61 123/172/19 
f 106/153/61 107/152/62 125/174/62 124/175/61 
f 107/152/62 108/154/63 126/176/63 125/174/62 
f 108/154/63 109/155/26 127/177/69 126/176/63 
f 109/155/26 110/156/64 128/178/28 127/177/69 
f 110/158/64 111/157/30 129/179/30 128/180/28 
f 111/157/30 112/159/32 130/181/32 129/179/30 
f 112/159/32 113/160/65 131/182/34 130/181/32 
f 113/160/65 114/161/36 132/183/70 131/182/34 
f 114/161/36 115/162/66 133/184/66 132/183/70 
f 115/164/66 116/163/67 134/185/67 133/186/66 
f 116/163/67 100/144/7 118/166/7 134/185/67 
f 118/166/7 117/165/68 135/187/71 136/188/72 
f 117/165/68 119/167/11 137/189/73 135/187/71 
f 119/169/11 120/168/13 138/190/74 137/191/73 
f 120/168/13 121/170/15 139/192/75 138/190/74 
f 121/170/15 122/171/17 140/193/76 139/192/75 
f 122/171/17 123/172/19 141/194/77 140/193/76 
f 123/172/19 124/173/61 142/195/78 141/194/77 
f 124/175/61 125/174/62 143/196/79 142/197/78 
f 125/174/62 126/176/63 144/198/80 143/196/79 
f 126/176/63 127/177/69 145/199/81 144/198/80 
f 127/177/69 128/178/28 146/200/82 145/199/81 
f 128/180/28 129/179/30 147/201/83 146/202/82 
f 129/179/30 130/181/32 148/203/84 147/201/83 
f 130/181/32 131/182/34 149/204/85 148/203/84 
f 131/182/34 132/183/70 150/205/86 149/204/85 
f 132/183/70 133/184/66 151/206/87 150/205/86 
f 133/186/66 134/185/67 152/207/88 151/208/87 
f 134/185/67 118/166/7 136/188/72 152/207/88 
f 136/188/72 135/187/71 153/209/89 154/210/90 
f 135/187/71 137/189/73 155/211/91 153/209/89 
f 137/191/73 138/190/74 156/212/92 155/213/91 
f 138/190/74 139/192/75 157/214/93 156/212/92 
f 139/192/75 140/193/76 158/215/94 157/214/93 
f 140/193/76 141/194/77 159/216/95 158/215/94 
f 141/194/77 142/195/78 160/217/96 159/216/95 
f 142/197/78 143/196/79 161/218/97 160/219/96 
f 143/196/79 144/198/80 162/220/98 161/218/97 
f 144/198/80 145/199/81 163/221/99 162/220/98 
f 145/199/81 146/200/82 164/222/100 163/221/99 
f 146/202/82 147/201/83 165/223/101 164/224/100 
f 147/201/83 148/203/84 166/225/102 165/223/101 
f 148/203/84 149/204/85 167/226/103 166/225/102 
f 149/204/85 150/205/86 168/227/104 167/226/103 
f 150/205/86 151/206/87 169/228/105 168/227/104 
f 151/208/87 152/207/88 170/229/106 169/230/105 
f 152/207/88 136/188/72 154/210/90 170/229/106 
f 154/210/90 153/209/89 171/231/8 172/232/7 
f 153/209/89 155/211/91 173/233/11 171/231/8 
f 155/213/91 156/212/92 174/234/13 173/235/11 
f 156/212/92 157/214/93 175/236/15 174/234/13 
f 157/214/93 158/215/94 176/237/17 175/236/15 
f 158/215/94 159/216/95 177/238/19 176/237/17 
f 159/216/95 160/217/96 178/239/61 177/238/19 
f 160/219/96 161/218/97 179/240/23 178/241/61 
f 161/218/97 162/220/98 180/242/63 179/240/23 
f 162/220/98 163/221/99 181/243/26 180/242/63 
f 163/221/99 164/222/100 182/244/28 181/243/26 
f 164/224/100 165/223/101 183/245/30 182/246/28 
f 165/223/101 166/225/102 184/247/32 183/245/30 
f 166/225/102 167/226/103 185/248/34 184/247/32 
f 167/226/103 168/227/104 186/249/36 185/248/34 
f 168/227/104 169/228/105 187/250/66 186/249/36 
f 169/230/105 170/229/106 188/251/40 187/252/66 
f 170/229/106 154/210/90 172/232/7 188/251/40 
s 1
f 77/253/3 75/254/3 73/255/3 45/256/3 
f 73/255/3 71/257/3 69/258/3 65/259/3 
f 69/258/3 67/260/3 65/259/3 
f 65/259/3 63/261/3 61/262/3 57/263/3 
f 61/262/3 59/264/3 57/263/3 
f 57/263/3 55/265/3 53/266/3 49/267/3 
f 53/266/3 51/268/3 49/267/3 
f 65/259/3 57/263/3 49/267/3 73/255/3 
f 49/267/3 46/269/3 45/256/3 73/255/3 
f 79/270/3 77/253/3 45/256/3 
f 171/271/5 173/272/5 174/273/5 188/274/5 
f 174/273/5 175/275/5 176/276/5 178/277/5 
f 176/276/5 177/278/5 178/277/5 
f 178/277/5 179/279/5 180/280/5 182/281/5 
f 180/280/5 181/282/5 182/281/5 
f 182/281/5 183/283/5 184/284/5 186/285/5 
f 184/284/5 185/286/5 186/285/5 
f 178/277/5 182/281/5 186/285/5 174/273/5 
f 186/285/5 187/287/5 188/274/5 174/273/5 
f 172/288/5 171/271/5 188/274/5 
s off
f 189/289/3 190/290/3 191/291/3 192/292/3 
f 31/54/4 40/56/4 37/293/4 36/294/4 
f 40/61/5 33/64/5 38/295/5 37/296/5 
f 33/69/6 29/72/6 35/297/6 38/298/6 
f 29/10/107 31/11/107 190/299/107 189/300/107 
f 31/54/108 36/294/108 191/301/108 190/302/108 
f 36/31/109 35/29/109 192/303/109 191/304/109 
f 35/297/110 29/72/110 189/305/110 192/306/110 
# 184 polygons - 8 triangles

